<svg viewBox="0 0 24 24" fill="none" xmlns="http://www.w3.org/2000/svg">
    <path d="M14.2495 16.3339C14.8863 15.6551 15.2778 14.7363 15.2778 13.737C15.2778 11.6606 13.6171 10 11.5407 10C9.4643 10 7.80362 11.6606 7.80362 13.737C7.80362 15.8134 9.4643 17.474 11.5407 17.474C12.5714 17.474 13.5113 17.0545 14.2495 16.3339Z" stroke="#2563eb" stroke-width="1.5"/>
    <path d="M15.4854 8.79978C16.8913 10.2057 17.6963 11.9712 17.6963 13.737C17.6963 17.1532 14.9367 19.9128 11.5205 19.9128C8.10433 19.9128 5.34473 17.1532 5.34473 13.737C5.34473 10.3208 8.10433 7.56122 11.5205 7.56122C12.9839 7.56122 14.3643 8.0587 15.4854 8.79978Z" stroke="#2563eb" stroke-width="1.5"/>
    <rect x="3" y="3" width="6.38298" height="6.38298" rx="1" stroke="#2563eb" stroke-width="1.5"/>
    <rect x="14.6172" y="3" width="6.38298" height="6.38298" rx="1" stroke="#2563eb" stroke-width="1.5"/>
    <rect x="3" y="14.6171" width="6.38298" height="6.38298" rx="1" stroke="#2563eb" stroke-width="1.5"/>
    <rect x="14.6172" y="14.6171" width="6.38298" height="6.38298" rx="1" stroke="#2563eb" stroke-width="1.5"/>
</svg>